<svg xmlns="http://www.w3.org/2000/svg" xmlns:xlink="http://www.w3.org/1999/xlink" width="768" zoomAndPan="magnify" viewBox="0 0 576 639.750003" height="853" preserveAspectRatio="xMidYMid meet" version="1.0"><defs><clipPath id="6f8e377710"><path d="M 0.113281 92 L 224 92 L 224 361 L 0.113281 361 Z M 0.113281 92 " clip-rule="nonzero"/></clipPath></defs><path fill="#1a1a1a" d="M 17.511719 580.414062 C 17.511719 580.414062 8.421875 610.96875 11.242188 613.632812 C 15.003906 616.921875 20.175781 618.644531 24.097656 621.621094 C 28.484375 624.757812 32.40625 628.359375 36.167969 632.277344 C 37.734375 634 39.300781 635.882812 41.339844 636.824219 C 42.90625 637.605469 44.632812 637.761719 46.355469 638.074219 C 58.742188 639.484375 71.28125 639.171875 83.664062 637.292969 C 84.605469 633.21875 84.917969 628.515625 81.941406 625.695312 C 80.84375 624.757812 79.433594 624.128906 78.023438 623.503906 C 74.417969 622.09375 70.8125 620.527344 67.046875 619.117188 C 63.757812 617.863281 60.308594 616.296875 58.113281 613.476562 C 56.859375 611.90625 56.230469 609.871094 55.761719 607.992188 C 54.664062 603.289062 55.136719 596.082031 56.074219 591.378906 C 56.230469 590.441406 55.605469 589.65625 54.976562 589.03125 C 54.351562 588.402344 53.410156 588.089844 52.625 587.777344 C 40.554688 583.859375 17.511719 580.414062 17.511719 580.414062 Z M 114.390625 587.148438 C 114.390625 589.03125 114.546875 591.066406 114.546875 592.949219 C 114.703125 597.335938 114.859375 601.722656 115.015625 606.109375 C 115.332031 615.042969 115.800781 623.972656 116.269531 632.90625 C 116.425781 636.039062 117.054688 637.292969 120.03125 637.449219 C 121.285156 637.605469 122.542969 637.761719 123.796875 637.761719 C 127.242188 638.074219 130.691406 638.234375 134.140625 638.234375 C 143.078125 638.546875 152.011719 638.546875 160.945312 638.546875 C 168.628906 638.546875 176.308594 638.546875 183.992188 638.234375 C 184.929688 638.234375 193.867188 638.546875 194.179688 637.449219 C 195.433594 632.90625 198.097656 625.695312 192.296875 623.816406 C 187.28125 622.09375 182.265625 620.527344 177.25 618.800781 C 171.761719 617.078125 166.121094 615.199219 161.730469 611.4375 C 157.96875 608.304688 155.460938 604.074219 153.894531 599.6875 C 152.796875 596.550781 153.265625 589.34375 151.226562 586.992188 C 149.035156 584.328125 137.902344 584.328125 134.613281 584.015625 C 128.8125 583.234375 122.855469 582.761719 116.898438 583.074219 C 114.546875 583.234375 114.234375 583.546875 114.234375 585.738281 C 114.390625 586.523438 114.390625 586.835938 114.390625 587.148438 Z M 114.390625 587.148438 " fill-opacity="1" fill-rule="nonzero"/><path fill="#f7b168" d="M 26.132812 382.976562 C 25.820312 392.378906 25.664062 401.78125 26.917969 411.023438 C 28.171875 420.269531 31.308594 429.515625 36.949219 437.035156 C 28.328125 484.671875 20.648438 533.71875 13.90625 581.664062 C 32.089844 586.367188 51.058594 592.476562 69.242188 597.179688 C 72.066406 558.945312 85.234375 452.550781 88.679688 437.820312 C 88.839844 437.035156 89.152344 436.253906 89.933594 435.9375 C 90.875 435.625 91.816406 436.566406 92.445312 437.507812 C 95.109375 442.050781 101.066406 465.867188 102.789062 472.917969 C 106.238281 487.179688 109.214844 501.59375 111.566406 516.011719 C 112.351562 520.867188 107.960938 589.03125 107.960938 589.03125 L 163.140625 589.03125 C 165.023438 588.71875 159.851562 536.066406 159.535156 532.308594 C 158.59375 519.300781 157.5 506.140625 156.402344 493.132812 C 155.304688 480.441406 152.796875 468.53125 150.128906 455.996094 C 147.308594 442.363281 144.332031 428.886719 141.195312 415.414062 C 138.058594 402.40625 134.613281 389.246094 130.378906 376.550781 C 128.496094 371.066406 129.753906 364.015625 128.96875 358.21875 C 128.65625 355.867188 128.183594 353.519531 126.617188 351.792969 C 124.265625 349.445312 120.660156 349.445312 117.367188 349.445312 C 94.324219 350.226562 71.28125 351.011719 48.238281 351.792969 C 42.75 351.949219 36.480469 352.578125 33.03125 356.808594 C 31.152344 359.003906 30.523438 361.980469 29.898438 364.957031 C 28.171875 371.695312 26.292969 376.238281 26.132812 382.976562 Z M 26.132812 382.976562 " fill-opacity="1" fill-rule="nonzero"/><path fill="#f7f2e8" d="M 127.871094 0.015625 L 127.871094 356.964844 C 125.363281 357.121094 91.347656 360.414062 91.347656 360.414062 C 91.347656 360.414062 98.398438 372.320312 101.222656 378.117188 L 127.871094 378.117188 L 127.871094 518.046875 L 488.730469 518.046875 L 488.730469 0.015625 Z M 127.871094 0.015625 " fill-opacity="1" fill-rule="nonzero"/><path fill="#f7f2e8" d="M 22.84375 380.46875 C 42.125 381.722656 59.996094 381.566406 79.117188 379.527344 C 82.410156 373.105469 86.328125 366.679688 89.308594 360.097656 C 68.617188 358.6875 46.984375 358.6875 26.449219 357.75 Z M 22.84375 380.46875 " fill-opacity="1" fill-rule="nonzero"/><path fill="#813209" d="M 174.273438 308.390625 L 223.492188 308.390625 L 223.492188 357.59375 L 174.273438 357.59375 Z M 174.273438 308.390625 " fill-opacity="1" fill-rule="nonzero"/><path fill="#f7b168" d="M 174.273438 416.351562 L 223.492188 416.351562 L 223.492188 465.554688 L 174.273438 465.554688 Z M 174.273438 416.351562 " fill-opacity="1" fill-rule="nonzero"/><path fill="#f7b168" d="M 138.375 112.992188 L 163.296875 105.15625 C 166.433594 104.214844 169.726562 105.941406 170.667969 109.074219 L 183.050781 148.71875 L 146.839844 159.84375 L 134.453125 120.199219 C 133.515625 117.222656 135.238281 113.929688 138.375 112.992188 Z M 226 345.371094 L 233.210938 309.171875 L 232.273438 306.039062 L 196.0625 317.632812 L 197 320.613281 L 223.652344 346.152344 C 224.433594 346.78125 225.84375 346.464844 226 345.371094 Z M 226 345.371094 " fill-opacity="1" fill-rule="nonzero"/><g clip-path="url(#6f8e377710)"><path fill="#158d85" d="M 174.273438 200.425781 L 223.492188 200.425781 L 223.492188 249.628906 L 174.273438 249.628906 Z M 140.253906 138.53125 L 176.464844 127.25 L 189.789062 169.871094 L 153.578125 181.152344 Z M 180.855469 141.667969 L 223.335938 141.667969 L 223.335938 92.464844 L 174.113281 92.464844 L 174.113281 120.355469 Z M 84.449219 193.53125 C 90.09375 192.59375 95.734375 192.277344 101.378906 192.277344 C 104.199219 192.277344 107.179688 192.433594 109.84375 193.53125 C 112.820312 194.628906 128.8125 205.753906 128.8125 205.753906 L 128.8125 248.53125 L 160.789062 236.78125 L 169.097656 258.71875 C 169.097656 258.71875 139.15625 288.804688 130.847656 294.445312 C 130.378906 314.8125 129.59375 336.4375 129.125 356.808594 C 94.167969 362.136719 59.054688 361.824219 23.941406 357.59375 C 24.878906 339.257812 25.195312 321.550781 24.410156 303.21875 C 20.648438 301.023438 16.414062 299.769531 12.339844 297.890625 C 8.265625 296.011719 4.34375 293.503906 2.308594 289.742188 C 0.113281 285.667969 0.269531 280.8125 0.425781 276.265625 C 0.894531 264.046875 1.367188 251.667969 1.992188 239.445312 C 2.308594 232.707031 2.621094 225.96875 4.1875 219.386719 C 5.753906 212.804688 9.203125 206.539062 14.378906 202.308594 C 23.941406 194.785156 37.890625 195.414062 48.238281 188.988281 C 56.230469 191.339844 64.695312 192.59375 72.847656 193.0625 C 76.765625 193.375 80.84375 193.375 84.449219 193.53125 Z M 84.449219 193.53125 " fill-opacity="1" fill-rule="nonzero"/></g><path fill="#1a1a1a" d="M 255.628906 111.738281 L 448.757812 111.738281 L 448.757812 122.550781 L 255.628906 122.550781 Z M 255.628906 219.699219 L 448.757812 219.699219 L 448.757812 230.511719 L 255.628906 230.511719 Z M 255.628906 327.664062 L 448.757812 327.664062 L 448.757812 338.476562 L 255.628906 338.476562 Z M 255.628906 435.625 L 448.757812 435.625 L 448.757812 446.4375 L 255.628906 446.4375 Z M 196.6875 319.203125 L 145.742188 156.550781 L 181.953125 145.269531 L 232.898438 307.917969 L 233.371094 309.171875 L 229.292969 314.5 C 228.980469 314.972656 228.195312 315.128906 227.726562 314.972656 L 222.238281 313.246094 C 221.613281 313.089844 220.984375 313.246094 220.671875 313.71875 L 217.222656 318.261719 C 216.910156 318.730469 216.125 318.886719 215.65625 318.730469 L 210.167969 317.007812 C 209.542969 316.851562 208.914062 317.007812 208.601562 317.476562 L 205.152344 322.023438 C 204.839844 322.492188 204.054688 322.648438 203.585938 322.492188 L 197.160156 320.296875 Z M 216.597656 339.101562 L 223.808594 345.996094 C 224.589844 346.78125 226 346.308594 226.160156 345.214844 L 228.039062 335.496094 Z M 216.597656 339.101562 " fill-opacity="1" fill-rule="nonzero"/><path fill="#f7b168" d="M 539.207031 194.628906 L 539.207031 176.453125 C 543.753906 171.910156 546.417969 165.796875 548.140625 159.6875 C 549.082031 156.238281 549.867188 152.476562 549.550781 148.875 C 548.613281 140.570312 541.714844 134.300781 534.347656 130.382812 C 529.332031 127.71875 523.84375 125.683594 518.199219 125.996094 C 512.558594 126.308594 506.757812 129.128906 505.347656 134.457031 L 503.777344 140.570312 C 503.308594 142.292969 502.839844 144.015625 502.054688 145.582031 C 501.269531 147.152344 500.171875 148.402344 499.074219 149.8125 C 497.039062 152.476562 495.3125 155.296875 493.746094 158.277344 C 492.960938 159.84375 492.335938 162.035156 493.589844 163.289062 C 494.53125 164.230469 496.410156 164.542969 496.566406 165.796875 C 496.882812 168.929688 497.820312 171.75 497.820312 174.886719 C 497.820312 177.394531 497.351562 180.054688 498.292969 182.40625 C 499.234375 184.914062 501.742188 186.636719 504.25 187.265625 C 505.503906 187.578125 506.914062 187.734375 508.011719 188.359375 C 510.832031 189.773438 510.519531 195.414062 510.207031 197.292969 C 515.066406 198.859375 520.238281 198.859375 525.410156 198.703125 C 530.585938 198.546875 535.601562 198.234375 539.207031 194.628906 Z M 478.070312 586.210938 C 478.070312 571.480469 476.972656 559.570312 479.480469 546.566406 C 482.144531 531.992188 487.320312 518.046875 490.453125 503.632812 C 493.589844 489.214844 494.84375 472.449219 489.199219 458.816406 C 475.089844 458.191406 460.199219 458.816406 446.089844 459.601562 C 446.246094 485.453125 447.816406 511.464844 449.382812 537.164062 C 450.167969 551.738281 450.949219 566.308594 452.046875 581.824219 C 455.96875 582.449219 471.644531 585.269531 478.070312 586.210938 Z M 546.261719 586.210938 C 546.261719 571.480469 545.164062 559.570312 547.671875 546.566406 C 550.335938 531.992188 555.507812 518.046875 558.644531 503.632812 C 561.777344 489.214844 563.035156 472.449219 557.390625 458.816406 C 543.28125 458.191406 528.546875 457.875 514.4375 458.503906 C 514.59375 484.359375 516.003906 511.308594 517.574219 537.007812 C 518.355469 551.582031 519.140625 566.152344 520.238281 581.664062 C 524.15625 582.449219 539.988281 585.269531 546.261719 586.210938 Z M 546.261719 586.210938 " fill-opacity="1" fill-rule="nonzero"/><path fill="#158d85" d="M 481.363281 294.128906 C 481.363281 294.128906 451.578125 397.863281 437.15625 462.421875 L 564.757812 462.421875 C 564.757812 462.421875 551.121094 420.898438 557.703125 398.019531 C 564.289062 375.140625 575.886719 335.96875 564.757812 316.382812 C 553.628906 296.792969 551.433594 291.9375 551.433594 291.9375 C 551.433594 291.9375 523.375 299.929688 510.519531 299.929688 C 497.664062 299.929688 481.363281 294.128906 481.363281 294.128906 Z M 373.042969 229.730469 L 396.867188 193.0625 L 446.089844 225.027344 L 422.265625 261.695312 Z M 373.042969 229.730469 " fill-opacity="1" fill-rule="nonzero"/><path fill="#813209" d="M 84.761719 193.53125 C 83.039062 196.824219 81.15625 202.777344 78.960938 208.105469 C 67.988281 203.71875 58.269531 196.980469 49.019531 189.457031 C 48.863281 183.503906 48.707031 177.394531 48.550781 171.4375 C 48.550781 170.8125 48.082031 170.027344 47.765625 169.558594 C 43.535156 164.230469 39.929688 158.589844 38.046875 152.164062 C 35.070312 142.136719 36.792969 131.011719 42.59375 122.394531 C 48.394531 113.773438 57.957031 107.820312 68.300781 106.566406 C 73.945312 105.941406 80.058594 106.722656 84.917969 109.699219 C 89.777344 112.675781 93.539062 117.378906 93.855469 123.019531 C 94.167969 129.289062 96.207031 135.554688 99.65625 140.882812 C 101.066406 143.078125 102.945312 145.582031 102.003906 148.089844 C 101.535156 149.1875 100.75 150.128906 100.125 151.066406 C 98.714844 153.730469 99.496094 157.023438 99.8125 160.15625 C 100.4375 165.640625 98.714844 171.28125 95.109375 175.511719 C 91.503906 179.742188 86.015625 182.09375 80.53125 181.78125 C 80.371094 183.660156 79.746094 186.636719 80.371094 188.519531 C 81 190.398438 82.882812 193.0625 84.761719 193.53125 Z M 551.433594 291.9375 C 546.417969 293.816406 541.402344 296.324219 536.382812 298.046875 C 523.214844 302.59375 509.734375 303.84375 496.253906 302.59375 C 490.925781 302.121094 484.8125 301.023438 481.363281 296.949219 C 481.363281 288.960938 481.832031 277.992188 479.792969 270 C 471.957031 265.769531 465.058594 256.367188 468.195312 248.0625 C 470.390625 242.265625 474.308594 237.25 477.914062 232.078125 C 481.519531 226.910156 483.554688 220.171875 486.222656 214.53125 C 488.417969 210.140625 491.550781 207.476562 495.628906 204.65625 C 499.703125 201.835938 504.09375 199.800781 508.636719 198.078125 C 509.421875 197.761719 510.207031 197.449219 511.144531 197.136719 C 520.238281 193.6875 529.488281 194.472656 539.207031 194.785156 C 539.363281 194.785156 550.492188 216.253906 552.6875 221.265625 C 554.882812 226.28125 556.761719 231.140625 557.234375 236.625 C 559.113281 255.425781 550.960938 273.132812 551.433594 291.9375 Z M 204.683594 233.488281 C 204.996094 233.332031 205.308594 233.332031 205.625 233.175781 C 206.09375 233.019531 206.40625 232.707031 206.71875 232.394531 C 207.035156 232.078125 207.191406 231.765625 207.191406 231.296875 C 207.191406 230.824219 206.71875 230.355469 206.25 230.199219 C 205.78125 230.042969 205.308594 230.042969 204.839844 230.042969 C 203.742188 230.042969 202.332031 230.199219 201.234375 230.042969 C 200.605469 229.886719 199.980469 229.414062 200.921875 229.101562 C 202.019531 228.632812 205.464844 228.320312 205.152344 226.75 C 204.839844 225.339844 203.113281 225.339844 202.019531 225.339844 C 201.234375 225.339844 198.253906 225.8125 197.785156 225.183594 C 197.316406 224.558594 200.292969 223.460938 200.765625 223.148438 C 201.390625 222.835938 202.332031 222.207031 202.019531 221.425781 C 201.859375 220.640625 200.765625 220.484375 199.824219 220.640625 C 192.925781 221.265625 185.871094 222.519531 179.289062 224.714844 C 173.488281 226.75 170.351562 233.332031 164.867188 235.996094 C 163.613281 236.625 162.042969 237.40625 160.476562 238.035156 L 167.53125 256.523438 C 170.507812 253.859375 173.015625 251.824219 173.644531 251.195312 C 176.621094 248.6875 180.386719 249.472656 183.675781 247.75 C 188.066406 245.398438 191.984375 241.636719 197.160156 240.699219 C 199.824219 240.226562 202.488281 240.382812 204.996094 239.289062 C 205.9375 238.972656 206.40625 237.875 205.9375 236.9375 C 205.464844 236.308594 204.371094 235.996094 203.585938 235.839844 C 203.113281 235.683594 200.765625 235.527344 200.765625 234.898438 C 201.390625 234.273438 204.371094 233.644531 204.683594 233.488281 Z M 204.683594 233.488281 " fill-opacity="1" fill-rule="nonzero"/><path fill="#1a1a1a" d="M 415.523438 624.757812 C 415.679688 621.308594 415.835938 617.707031 417.71875 614.726562 C 419.753906 611.75 423.203125 610.183594 426.496094 608.460938 C 430.570312 606.421875 438.878906 604.074219 442.800781 601.410156 C 444.367188 600.3125 445.933594 599.214844 447.03125 597.648438 C 448.757812 594.984375 446.875 575.554688 446.5625 569.445312 L 483.871094 569.445312 C 480.109375 586.523438 477.601562 607.050781 476.347656 624.601562 L 468.664062 624.601562 C 468.664062 619.898438 468.507812 610.339844 468.507812 610.339844 C 468.507812 610.339844 468.039062 608.304688 466.3125 608.773438 C 465.53125 609.085938 464.746094 609.402344 464.117188 609.871094 C 461.925781 611.59375 459.886719 613.789062 458.320312 616.296875 C 456.59375 618.960938 455.339844 621.78125 453.773438 624.601562 C 452.988281 624.757812 415.523438 624.757812 415.523438 624.757812 Z M 483.714844 624.757812 C 483.871094 621.308594 484.027344 617.707031 485.90625 614.726562 C 487.945312 611.75 491.394531 610.183594 494.6875 608.460938 C 498.761719 606.421875 507.070312 604.074219 510.988281 601.410156 C 512.558594 600.3125 514.125 599.214844 515.222656 597.648438 C 516.945312 594.984375 515.066406 575.554688 514.75 569.445312 L 552.058594 569.445312 C 548.296875 586.523438 545.789062 607.050781 544.535156 624.601562 L 536.855469 624.601562 C 536.855469 619.898438 536.699219 610.339844 536.699219 610.339844 C 536.699219 610.339844 536.226562 608.304688 534.503906 608.773438 C 533.71875 609.085938 532.9375 609.402344 532.308594 609.871094 C 530.113281 611.59375 528.074219 613.789062 526.507812 616.296875 C 524.785156 618.960938 523.53125 621.78125 521.960938 624.601562 C 521.179688 624.757812 483.714844 624.757812 483.714844 624.757812 Z M 567.578125 120.824219 C 560.839844 113.304688 550.023438 112.050781 543.4375 118.003906 C 540.773438 120.355469 539.207031 123.644531 538.734375 127.09375 C 537.636719 126.464844 536.382812 125.996094 535.128906 125.527344 C 528.390625 123.332031 520.707031 121.921875 514.28125 124.742188 C 509.890625 126.625 506.285156 130.699219 506.128906 132.578125 C 505.972656 134.300781 506.757812 137.433594 507.699219 138.84375 C 512.242188 145.898438 519.769531 150.753906 528.074219 152.007812 C 528.703125 151.066406 528.703125 151.066406 529.488281 150.285156 C 530.742188 149.1875 532.777344 149.03125 533.875 150.285156 C 534.503906 150.910156 534.816406 151.695312 534.972656 152.476562 C 535.445312 154.515625 535.128906 157.648438 533.875 159.214844 C 532.9375 160.46875 530.269531 161.878906 528.390625 161.566406 C 528.074219 163.289062 528.234375 165.171875 528.546875 166.894531 C 528.859375 168.617188 529.800781 169.714844 531.054688 170.96875 C 533.25 173.320312 535.914062 175.511719 538.734375 176.609375 C 541.558594 177.707031 544.535156 174.730469 545.945312 172.691406 C 547.671875 170.339844 548.453125 167.519531 549.394531 164.699219 C 551.121094 159.058594 552.53125 153.417969 552.21875 147.933594 C 557.703125 149.65625 563.503906 148.71875 567.578125 144.957031 C 574.476562 139.160156 574.320312 128.347656 567.578125 120.824219 Z M 48.707031 172.847656 C 46.667969 172.847656 44.476562 172.691406 42.59375 171.59375 C 40.714844 170.5 39.929688 168.304688 40.242188 166.109375 C 38.046875 166.109375 35.851562 165.015625 34.597656 163.289062 C 33.34375 161.566406 32.875 158.589844 33.503906 156.394531 C 31.152344 155.925781 29.113281 154.203125 28.328125 152.007812 C 27.546875 149.8125 28.644531 146.835938 30.054688 145.113281 C 28.957031 144.957031 28.015625 144.171875 27.386719 143.234375 C 26.761719 142.292969 26.449219 141.195312 26.449219 140.097656 C 26.449219 138.6875 26.761719 137.121094 27.703125 136.023438 C 28.644531 134.929688 30.210938 133.675781 31.777344 133.832031 C 30.054688 133.832031 28.644531 132.265625 28.328125 130.699219 C 28.015625 129.128906 28.484375 127.25 29.269531 125.839844 C 29.898438 124.742188 30.679688 123.644531 31.777344 123.019531 C 32.875 122.394531 34.285156 121.609375 35.539062 121.921875 C 34.757812 119.257812 35.539062 116.28125 37.734375 114.402344 C 39.773438 112.675781 42.125 112.050781 44.789062 112.207031 C 46.828125 112.363281 46.199219 112.207031 46.042969 110.328125 C 45.730469 107.820312 46.828125 106.253906 48.863281 105.15625 C 51.53125 103.902344 53.722656 104.6875 56.390625 105.625 C 56.074219 104.6875 56.703125 103.277344 57.328125 102.648438 C 58.113281 101.707031 59.679688 100.925781 60.777344 100.457031 C 62.03125 99.984375 63.601562 99.671875 64.855469 100.140625 C 66.734375 100.769531 66.890625 102.179688 67.675781 103.433594 C 68.773438 101.707031 70.652344 100.613281 72.691406 100.613281 C 74.730469 100.613281 76.925781 101.867188 78.023438 103.589844 C 79.433594 102.335938 81.3125 101.867188 83.195312 102.023438 C 85.074219 102.179688 86.800781 103.433594 87.742188 105 C 89.621094 104.6875 91.816406 105.46875 93.070312 106.878906 C 94.324219 108.289062 94.953125 110.640625 94.324219 112.519531 C 95.734375 112.675781 96.988281 112.992188 98.085938 113.929688 C 99.183594 114.871094 99.96875 116.125 99.96875 117.378906 C 99.96875 118.476562 99.8125 119.730469 98.871094 120.355469 C 99.027344 122.550781 97.929688 124.898438 95.890625 125.839844 C 93.855469 126.78125 91.503906 127.25 89.777344 125.839844 C 88.839844 127.5625 87.113281 128.816406 85.234375 129.128906 C 83.351562 129.445312 81.785156 128.972656 80.53125 127.71875 C 79.589844 128.972656 78.179688 129.757812 76.609375 130.070312 C 75.042969 130.382812 72.535156 129.601562 71.4375 128.503906 C 71.75 138.6875 71.90625 148.71875 72.222656 158.902344 C 72.222656 161.097656 71.90625 164.699219 73.945312 165.484375 C 75.984375 166.265625 78.179688 165.484375 79.902344 164.074219 C 81.628906 162.664062 82.882812 160.941406 84.449219 159.53125 C 88.679688 155.769531 94.324219 154.515625 99.65625 156.550781 C 101.535156 162.976562 100.28125 169.714844 97.304688 173.945312 C 94.324219 178.175781 89.308594 181.625 84.136719 181.78125 C 80.058594 181.78125 75.511719 181.308594 72.378906 178.644531 C 69.558594 176.140625 68.300781 172.378906 67.519531 168.773438 C 66.109375 162.664062 66.109375 155.769531 65.636719 149.5 C 65.480469 146.367188 65.167969 143.234375 65.324219 140.097656 C 65.324219 138.21875 62.660156 136.808594 60.621094 136.964844 C 58.582031 137.121094 57.015625 138.375 56.074219 140.097656 C 55.136719 141.980469 54.820312 144.171875 55.605469 146.210938 C 56.390625 148.246094 57.957031 149.8125 59.996094 150.285156 C 61.40625 154.515625 60.308594 159.371094 58.425781 163.445312 C 56.546875 167.519531 53.097656 172.691406 48.707031 172.847656 Z M 48.707031 172.847656 " fill-opacity="1" fill-rule="nonzero"/><path fill="#f7b168" d="M 510.519531 233.488281 C 509.890625 245.867188 508.011719 258.089844 505.503906 270.3125 C 504.5625 275.011719 503.464844 279.871094 502.054688 284.414062 C 500.015625 290.683594 497.507812 296.636719 494.6875 302.59375 C 492.335938 307.761719 490.925781 311.054688 485.59375 314.03125 C 479.011719 317.632812 471.644531 314.8125 465.371094 311.679688 C 456.125 306.980469 448.914062 299.144531 442.015625 291.464844 C 435.117188 283.789062 428.378906 275.796875 421.167969 268.277344 C 419.285156 266.394531 415.835938 265.613281 413.328125 265.140625 C 411.605469 264.828125 410.035156 264.828125 408.3125 264.203125 C 404.238281 262.949219 401.414062 259.65625 398.59375 256.367188 C 395.300781 252.292969 391.851562 248.375 388.5625 244.300781 C 388.089844 243.675781 387.464844 242.890625 387.308594 242.109375 C 387.148438 241.324219 387.308594 240.226562 388.089844 239.914062 C 388.875 239.445312 389.972656 239.914062 390.753906 240.382812 C 397.652344 244.144531 403.921875 249.003906 410.820312 252.761719 C 410.351562 250.726562 409.566406 247.75 408.625 246.023438 C 407.527344 244.144531 406.746094 242.109375 406.429688 239.914062 C 406.429688 239.757812 406.429688 239.445312 406.429688 239.289062 C 406.589844 239.128906 406.902344 239.128906 407.214844 239.128906 C 410.195312 239.757812 411.605469 243.046875 413.640625 245.242188 C 414.894531 246.652344 417.5625 247.90625 419.128906 249.160156 C 420.851562 250.414062 423.988281 254.015625 425.554688 255.582031 L 428.847656 251.195312 C 435.117188 256.054688 441.546875 260.910156 448.285156 265.296875 C 450.792969 267.023438 453.457031 268.746094 456.125 270.3125 C 457.847656 271.253906 466 276.582031 467.878906 274.699219 C 468.351562 274.230469 468.507812 273.761719 468.664062 273.132812 C 469.761719 268.902344 470.390625 264.359375 471.171875 259.972656 C 472.742188 251.507812 473.835938 242.890625 476.1875 234.585938 C 475.5625 235.527344 474.933594 236.464844 474.308594 237.40625 C 473.835938 236.9375 473.367188 236.464844 472.898438 235.839844 C 463.648438 225.8125 454.554688 215.46875 446.089844 204.8125 C 444.835938 203.246094 441.703125 201.992188 439.820312 201.054688 C 435.433594 198.703125 432.765625 194.628906 431.355469 189.773438 C 431.199219 188.988281 431.042969 187.890625 431.667969 187.265625 C 432.296875 186.792969 433.238281 187.109375 433.863281 187.578125 C 434.492188 188.203125 434.804688 188.988281 435.273438 189.613281 C 435.589844 190.085938 436.214844 190.554688 436.6875 191.023438 C 437.46875 191.652344 439.351562 194.316406 440.449219 194.160156 C 441.859375 194.003906 440.449219 191.023438 440.132812 190.085938 C 438.566406 186.167969 438.253906 179.898438 435.902344 176.453125 L 433.550781 173.003906 C 432.296875 170.96875 429.632812 167.363281 430.101562 164.855469 C 430.570312 162.191406 433.238281 164.855469 434.175781 165.796875 C 435.902344 167.519531 437.46875 169.871094 439.507812 171.4375 C 441.230469 172.691406 443.425781 172.847656 445.308594 173.476562 C 447.660156 174.101562 448.597656 175.355469 449.851562 177.394531 C 451.421875 180.214844 452.363281 183.347656 452.988281 186.480469 C 453.300781 187.734375 453.300781 189.773438 453.929688 190.867188 C 454.554688 191.808594 455.96875 192.121094 456.90625 192.75 C 460.828125 194.941406 464.746094 197.292969 468.507812 199.800781 C 472.269531 202.308594 476.03125 204.8125 479.792969 207.320312 C 481.675781 208.574219 483.398438 209.984375 485.28125 211.394531 C 485.4375 211.550781 485.90625 211.867188 486.535156 212.179688 C 486.535156 212.179688 486.691406 212.023438 486.691406 212.023438 C 489.199219 209.515625 493.902344 208.105469 497.507812 208.574219 C 502.679688 209.046875 506.914062 213.433594 508.792969 218.289062 C 510.832031 222.992188 510.832031 228.320312 510.519531 233.488281 Z M 510.519531 233.488281 " fill-opacity="1" fill-rule="nonzero"/><path fill="#f7f2e8" d="M 86.488281 215.15625 Z M 83.351562 192.90625 C 83.351562 192.90625 80.53125 202.152344 78.335938 207.636719 C 74.886719 204.972656 57.800781 191.964844 48.707031 186.324219 C 44.476562 187.734375 40.398438 189.613281 36.480469 191.808594 C 46.828125 199.644531 72.691406 219.542969 72.691406 219.542969 L 78.804688 208.417969 C 81.3125 210.769531 83.820312 213.117188 86.488281 215.3125 C 89.308594 208.417969 94.636719 191.023438 94.636719 191.023438 Z M 83.351562 192.90625 " fill-opacity="1" fill-rule="nonzero"/></svg>